<svg xmlns="http://www.w3.org/2000/svg" width="34.472" height="30.011" viewBox="0 0 34.472 30.011">
    <path fill="#fff" d="M407.017 150.223a8.36 8.36 0 0 1 5.676-4.315c4.2-.771 9.587.957 11.106 6.081.894 3.016.121 5.775-1.307 8.413a30.207 30.207 0 0 1-6.448 8c-2.724 2.458-5.648 4.694-8.468 7.048a.874.874 0 0 1-1.3.008 83.1 83.1 0 0 1-12.264-11.207 17.391 17.391 0 0 1-4.183-8.153c-.722-3.982 1.9-9.475 7.234-10.142 2.769-.347 5.343-.119 7.559 1.658a22.211 22.211 0 0 1 2.395 2.609z" transform="translate(-389.708 -145.732)"/>
</svg>
