<svg xmlns="http://www.w3.org/2000/svg" width="18.129" height="16.116" viewBox="0 0 18.129 16.116">
  <path id="Path_9" data-name="Path 9" d="M397.8,147.833a3.91,3.91,0,0,1,2.655-2.018,4.434,4.434,0,0,1,5.195,2.845,5.012,5.012,0,0,1-.611,3.935,14.128,14.128,0,0,1-3.016,3.741c-1.274,1.15-2.642,2.2-3.961,3.3a.409.409,0,0,1-.609,0,38.869,38.869,0,0,1-5.736-5.242,8.135,8.135,0,0,1-1.957-3.814,4.126,4.126,0,0,1,3.383-4.744,4.451,4.451,0,0,1,3.536.775A10.391,10.391,0,0,1,397.8,147.833Z" transform="translate(-388.698 -144.674)" fill="none" stroke="#cbcbcb" stroke-width="2"/>
</svg>
