<svg xmlns="http://www.w3.org/2000/svg" width="17.708" height="17.707" viewBox="0 0 17.708 17.707">
  <g id="Group_7" data-name="Group 7" transform="translate(0 0)">
    <path id="Path_6" data-name="Path 6" d="M-138.308,357.946c.158.132.315.244.45.378,1.439,1.434,2.871,2.875,4.315,4.3a.957.957,0,0,1,.233,1.138,1.48,1.48,0,0,1-1.2.963.83.83,0,0,1-.746-.252q-.908-.912-1.819-1.821-1.3-1.3-2.6-2.607a4.558,4.558,0,0,1-.32-.4,6.846,6.846,0,0,1-5.685,1.044,6.753,6.753,0,0,1-4.032-2.817,6.927,6.927,0,0,1,1.024-9,6.921,6.921,0,0,1,9.008-.342,6.724,6.724,0,0,1,2.558,4.445A6.817,6.817,0,0,1-138.308,357.946Zm-5.686.445a4.423,4.423,0,0,0,4.429-4.411,4.418,4.418,0,0,0-4.407-4.43,4.417,4.417,0,0,0-4.434,4.415A4.422,4.422,0,0,0-143.993,358.391Z" transform="translate(150.924 -347.033)" fill="#9c9da1"/>
  </g>
</svg>
